<?xml version="1.0" encoding="UTF-8" standalone="no"?>
<svg
   xmlns:dc="http://purl.org/dc/elements/1.1/"
   xmlns:cc="http://creativecommons.org/ns#"
   xmlns:rdf="http://www.w3.org/1999/02/22-rdf-syntax-ns#"
   xmlns:svg="http://www.w3.org/2000/svg"
   xmlns="http://www.w3.org/2000/svg"
   viewBox="0 0 551.37335 348.97333"
   height="348.97333"
   width="551.37335"
   xml:space="preserve"
   id="svg2"
   version="1.1"><metadata
     id="metadata8"><rdf:RDF><cc:Work
         rdf:about=""><dc:format>image/svg+xml</dc:format><dc:type
           rdf:resource="http://purl.org/dc/dcmitype/StillImage" /></cc:Work></rdf:RDF></metadata><defs
     id="defs6"><clipPath
       id="clipPath102"
       clipPathUnits="userSpaceOnUse"><path
         id="path100"
         d="m 2480.52,1499.92 431,-445.54 -1.15,891.99 0.88,0.91 h -0.88 l -1.56,598.83 -282.46,61.66 -572.24,-663.73 -570.81,663.73 -283.89,-61.66 v -597.62 l -3.65,0.01 3.65,-3.81 -1.28,-889.83 428.49,443.3 424.75,-443.96 z" /></clipPath><linearGradient
       id="linearGradient108"
       spreadMethod="pad"
       gradientTransform="matrix(0,875.607,875.607,0,2053.64,1590.22)"
       gradientUnits="userSpaceOnUse"
       y2="0"
       x2="1"
       y1="0"
       x1="0"><stop
         id="stop104"
         offset="0"
         style="stop-opacity:1;stop-color:#c4161d" /><stop
         id="stop106"
         offset="1"
         style="stop-opacity:1;stop-color:#f1471d" /></linearGradient><clipPath
       id="clipPath122"
       clipPathUnits="userSpaceOnUse"><path
         id="path120"
         d="M 0,0 H 4135 V 2617 H 0 Z" /></clipPath><clipPath
       id="clipPath128"
       clipPathUnits="userSpaceOnUse"><path
         id="path126"
         d="m 2257.05,2416.23 c 0,-111.07 -90.04,-201.1 -201.11,-201.1 -111.06,0 -201.1,90.03 -201.1,201.1 0,111.07 90.04,201.1 201.1,201.1 111.07,0 201.11,-90.03 201.11,-201.1 z" /></clipPath><linearGradient
       id="linearGradient134"
       spreadMethod="pad"
       gradientTransform="matrix(402.204,0,0,-402.204,1854.84,2416.23)"
       gradientUnits="userSpaceOnUse"
       y2="0"
       x2="1"
       y1="0"
       x1="0"><stop
         id="stop130"
         offset="0"
         style="stop-opacity:1;stop-color:#c4161d" /><stop
         id="stop132"
         offset="1"
         style="stop-opacity:1;stop-color:#f1471d" /></linearGradient></defs><g
     transform="matrix(1.3333333,0,0,-1.3333333,0,348.97333)"
     id="g10"><g
       transform="scale(0.1)"
       id="g12"><path
         id="path14"
         style="fill:#b01419;fill-opacity:1;fill-rule:nonzero;stroke:none"
         d="m 3202.05,575 c 0,-164.988 -114.87,-265.219 -265.98,-265.219 -169.62,0 -291.43,124.899 -291.43,279.867 0,156.5 124.13,281.411 282.95,281.411 103.31,0 190.42,-50.887 235.91,-123.368 l -104.85,-60.132 c -22.36,35.461 -70.92,63.222 -131.83,63.222 -90.97,0 -158.83,-67.07 -158.83,-161.902 0,-91.758 64.77,-158.828 169.62,-158.828 15.26,0 29.4,1.437 42.4,4.187 46.79,9.91 39.23,79.082 -8.61,79.082 h -39.96 v 107.942 h 270.61 V 575" /><path
         id="path16"
         style="fill:#e07b10;fill-opacity:1;fill-rule:nonzero;stroke:none"
         d="m 1294.76,589.789 c 0,92.52 -58.6,151.102 -143.4,151.102 v 0 c -51.1,0 -92.51,-41.422 -92.51,-92.52 v -209.68 h 92.51 c 84.8,0 143.4,58.579 143.4,151.098 z m 118.72,0 c 0,-152.648 -113.32,-269.84 -262.12,-269.84 H 935.484 v 539.672 h 215.876 c 148.8,0 262.12,-117.18 262.12,-269.832" /><path
         id="path18"
         style="fill:#b01419;fill-opacity:1;fill-rule:nonzero;stroke:none"
         d="M 539.68,319.949 H 416.328 V 633.738 L 276.773,404.75 H 262.906 L 123.359,633.738 V 319.949 H 0 V 859.621 H 123.359 L 269.844,619.859 416.328,859.621 H 539.68 V 319.949" /><path
         id="path20"
         style="fill:#dc401a;fill-opacity:1;fill-rule:nonzero;stroke:none"
         d="M 909.684,438.691 V 319.949 H 570.461 V 859.621 H 905.832 V 740.891 H 693.82 v -89.43 H 886.563 V 534.281 H 693.82 v -95.59 h 215.864" /><path
         id="path22"
         style="fill:#566c78;fill-opacity:1;fill-rule:nonzero;stroke:none"
         d="m 1294.76,589.789 c 0,92.52 -58.6,151.102 -143.4,151.102 h -92.51 v -302.2 h 92.51 c 84.8,0 143.4,58.579 143.4,151.098 z m 118.72,0 c 0,-152.648 -113.32,-269.84 -262.12,-269.84 H 935.484 v 539.672 h 215.876 c 148.8,0 262.12,-117.18 262.12,-269.832" /><path
         id="path24"
         style="fill:#b01419;fill-opacity:1;fill-rule:nonzero;stroke:none"
         d="M 1562.44,859.621 V 319.949 h -123.36 v 539.672 h 123.36" /><path
         id="path26"
         style="fill:#dc401a;fill-opacity:1;fill-rule:nonzero;stroke:none"
         d="M 2132.05,319.949 H 2008.7 V 633.738 L 1869.15,404.75 h -13.87 L 1715.73,633.738 V 319.949 h -123.36 v 539.672 h 123.36 l 146.49,-239.762 146.48,239.762 h 123.35 V 319.949" /><path
         id="path28"
         style="fill:#e07b10;fill-opacity:1;fill-rule:nonzero;stroke:none"
         d="m 2488.16,520.41 -63.2,198.129 -63.23,-198.129 z m 37.02,-115.66 h -200.46 l -26.98,-84.801 h -134.92 l 183.48,539.672 h 157.29 l 183.49,-539.672 h -134.93 l -26.97,84.801" /><path
         id="path30"
         style="fill:#475862;fill-opacity:1;fill-rule:nonzero;stroke:none"
         d="m 3202.05,574.371 c 0,-164.992 -114.87,-265.211 -265.98,-265.211 -169.62,0 -291.43,124.899 -291.43,279.871 0,156.489 124.13,281.41 282.95,281.41 103.31,0 190.42,-50.902 235.91,-123.371 l -104.85,-60.129 c -22.36,35.457 -70.92,63.207 -131.83,63.207 -90.97,0 -158.83,-67.066 -158.83,-161.886 0,-91.762 64.77,-158.832 169.62,-158.832 71.7,0 118.72,31.601 138,83.261 h -144.17 v 107.938 h 270.61 v -46.258" /><path
         id="path32"
         style="fill:#dc401a;fill-opacity:1;fill-rule:nonzero;stroke:none"
         d="M 3569.76,438.691 V 319.949 h -339.22 v 539.672 h 335.36 v -118.73 h -212 v -89.43 h 192.75 V 534.281 H 3353.9 v -95.59 h 215.86" /><path
         id="path34"
         style="fill:#e07b10;fill-opacity:1;fill-rule:nonzero;stroke:none"
         d="M 4135.26,319.949 H 4011.91 V 633.738 L 3872.35,404.75 h -13.87 L 3718.94,633.738 V 319.949 h -123.36 v 539.672 h 123.36 l 146.49,-239.762 146.48,239.762 h 123.35 V 319.949" /><path
         id="path36"
         style="fill:#566c78;fill-opacity:1;fill-rule:nonzero;stroke:none"
         d="M 539.68,319.949 H 416.328 V 633.738 L 276.773,404.75 H 262.906 L 123.359,633.738 V 319.949 H 0 V 859.621 H 123.359 L 269.844,619.859 416.328,859.621 v 0 c 68.125,0 123.352,-55.223 123.352,-123.34 V 319.949" /><path
         id="path38"
         style="fill:#566c78;fill-opacity:1;fill-rule:nonzero;stroke:none"
         d="m 909.684,438.691 v 0 c 0,-65.582 -53.161,-118.742 -118.735,-118.742 H 570.461 V 859.621 H 905.832 V 740.891 H 693.82 v -89.43 H 886.563 V 534.281 H 693.82 v -95.59 h 215.864" /><path
         id="path40"
         style="fill:#475862;fill-opacity:1;fill-rule:nonzero;stroke:none"
         d="M 1562.44,736.27 V 319.949 h -123.36 v 539.672 c 68.13,0 123.36,-55.223 123.36,-123.351" /><path
         id="path42"
         style="fill:#475862;fill-opacity:1;fill-rule:nonzero;stroke:none"
         d="m 2008.7,319.949 v 0 313.789 L 1869.15,404.75 h -13.87 L 1715.73,633.738 V 319.949 h -123.36 v 539.672 h 123.36 l 146.49,-239.762 146.48,239.762 h 123.35 v -416.32 c 0,-68.129 -55.23,-123.352 -123.35,-123.352" /><path
         id="path44"
         style="fill:#475862;fill-opacity:1;fill-rule:nonzero;stroke:none"
         d="m 2488.16,520.41 -63.2,198.129 -63.23,-198.129 z m 37.02,-115.66 h -200.46 l -26.98,-84.801 h -134.92 l 183.48,539.672 v 0 c 94.05,0 177.64,-59.871 207.91,-148.902 l 132.87,-390.77 h -134.93 l -26.97,84.801" /><path
         id="path46"
         style="fill:#475862;fill-opacity:1;fill-rule:nonzero;stroke:none"
         d="M 3569.76,438.691 V 319.949 h -339.22 v 539.672 h 216.63 c 65.58,0 118.73,-53.152 118.73,-118.73 v 0 h -212 v -89.43 h 192.75 V 534.281 H 3353.9 v -95.59 h 215.86" /><path
         id="path48"
         style="fill:#475862;fill-opacity:1;fill-rule:nonzero;stroke:none"
         d="M 4135.26,319.949 H 4011.91 V 633.738 L 3872.35,404.75 h -13.87 l -139.54,228.988 v -313.789 0 c -68.13,0 -123.36,55.231 -123.36,123.371 v 416.301 h 123.36 l 146.49,-239.762 146.48,239.762 h 123.35 V 319.949" /><path
         id="path50"
         style="fill:#566c78;fill-opacity:1;fill-rule:nonzero;stroke:none"
         d="m 631.012,13.7695 c 18.363,0 33.418,6.5118 45.16,19.5313 11.738,13.0078 17.609,29.0898 17.609,48.1992 0,19.121 -5.871,35.191 -17.609,48.199 -11.742,13.031 -26.797,19.531 -45.16,19.531 H 583.598 V 13.7695 Z m 0,146.7505 c 21.527,0 39.328,-7.629 53.398,-22.911 14.078,-15.277 21.113,-33.98 21.113,-56.109 0,-22.1289 -7.035,-40.8281 -21.113,-56.1016 C 670.34,10.1094 652.539,2.48047 631.012,2.48047 H 571.633 V 160.52 h 59.379" /><path
         id="path52"
         style="fill:#566c78;fill-opacity:1;fill-rule:nonzero;stroke:none"
         d="m 740.293,160.52 h 11.969 V 2.48047 H 740.293 V 160.52" /><path
         id="path54"
         style="fill:#566c78;fill-opacity:1;fill-rule:nonzero;stroke:none"
         d="m 812.188,53.9492 h 70.46 L 847.406,145.789 Z M 902.406,2.48047 886.984,42.6602 H 807.855 L 792.445,2.48047 h -12.64 L 841.219,160.52 h 12.644 L 915.051,2.48047 h -12.645" /><path
         id="path56"
         style="fill:#566c78;fill-opacity:1;fill-rule:nonzero;stroke:none"
         d="m 1087.33,76.082 v -6.0898 c 0,-19.7227 -7,-36.3203 -21,-49.793 C 1052.33,6.71875 1033.89,0 1011.01,0 986.926,0 967.055,7.85938 951.402,23.5898 935.746,39.3086 927.922,58.6211 927.922,81.5 c 0,22.879 7.754,42.191 23.258,57.922 15.5,15.719 35.144,23.59 58.93,23.59 14.45,0 27.73,-3.461 39.85,-10.391 12.12,-6.922 21.49,-16.18 28.11,-27.769 l -10.61,-6.321 c -5.27,9.93 -13.06,17.91 -23.37,23.938 -10.31,6.011 -21.64,9.031 -33.98,9.031 -20.473,0 -37.297,-6.738 -50.465,-20.219 -13.176,-13.461 -19.758,-30.062 -19.758,-49.781 0,-19.7187 6.625,-36.3203 19.871,-49.7891 13.246,-13.4687 30.332,-20.1992 51.252,-20.1992 18.52,0 33.49,5.0391 44.93,15.1289 11.44,10.0703 17.84,22.8008 19.2,38.1485 h -67.06 V 76.082 h 79.25" /><path
         id="path58"
         style="fill:#566c78;fill-opacity:1;fill-rule:nonzero;stroke:none"
         d="m 1225.73,160.52 h 11.97 V 2.48047 h -10.61 L 1133.84,138.461 V 2.48047 h -11.97 V 160.52 h 9.95 L 1225.73,23.9688 V 160.52" /><path
         id="path60"
         style="fill:#566c78;fill-opacity:1;fill-rule:nonzero;stroke:none"
         d="m 1344.49,176.332 10.98,0.047 20.49,28.723 -13.4,-0.09 z M 1304.64,31.9414 c 13.47,-13.6211 29.92,-20.4297 49.34,-20.4297 19.41,0 35.86,6.8086 49.33,20.4297 13.47,13.6172 20.21,30.1484 20.21,49.5586 0,19.422 -6.74,35.941 -20.21,49.559 -13.47,13.621 -29.92,20.441 -49.33,20.441 -19.42,0 -35.87,-6.82 -49.34,-20.441 -13.47,-13.618 -20.21,-30.137 -20.21,-49.559 0,-19.4102 6.74,-35.9414 20.21,-49.5586 z m 107.14,-8.1328 C 1395.97,7.94141 1376.7,0 1353.98,0 c -22.73,0 -42,7.94141 -57.8,23.8086 -15.81,15.8828 -23.71,35.1133 -23.71,57.6914 0,22.582 7.9,41.809 23.71,57.699 15.8,15.871 35.07,23.813 57.8,23.813 22.72,0 41.99,-7.942 57.8,-23.813 15.8,-15.89 23.7,-35.117 23.7,-57.699 0,-22.5781 -7.9,-41.8086 -23.7,-57.6914" /><path
         id="path62"
         style="fill:#566c78;fill-opacity:1;fill-rule:nonzero;stroke:none"
         d="m 1512.94,0 c -14.61,0 -26.99,3.35156 -37.15,10.0391 -10.16,6.6914 -17.04,15.7695 -20.66,27.2109 l 10.39,6.1016 c 2.85,-9.793 8.31,-17.543 16.37,-23.2696 8.05,-5.7226 18.4,-8.5703 31.05,-8.5703 12.78,0 22.61,2.9297 29.46,8.8086 6.84,5.8711 10.27,13.4688 10.27,22.8086 0,8.7305 -3.31,15.4297 -9.93,20.1016 -6.63,4.6679 -16.93,9.2617 -30.93,13.7812 -5.09,1.8477 -8.8,3.2071 -11.13,4.0586 -2.33,0.8516 -5.69,2.0781 -10.07,3.6797 -4.39,1.5898 -7.63,3.082 -9.74,4.4297 -2.11,1.3516 -4.63,3.1601 -7.56,5.4219 -2.94,2.25 -5.08,4.5468 -6.44,6.8784 -1.35,2.329 -2.56,5.122 -3.61,8.36 -1.05,3.23 -1.58,6.808 -1.58,10.719 0,12.8 4.55,23.07 13.66,30.82 9.1,7.762 20.51,11.633 34.21,11.633 12.34,0 22.88,-3.082 31.61,-9.25 8.72,-6.18 15.12,-14.153 19.19,-23.942 l -10.16,-5.64 c -7.53,18.211 -21.08,27.32 -40.64,27.32 -10.84,0 -19.5,-2.859 -25.97,-8.578 -6.47,-5.723 -9.71,-13.024 -9.71,-21.902 0,-8.571 3.01,-14.969 9.04,-19.18 6.02,-4.2111 15.87,-8.5705 29.58,-13.0783 8.62,-3.2422 15.41,-5.7734 20.35,-7.6133 4.95,-1.8593 10.24,-4.5468 15.89,-8.0898 5.64,-3.5391 9.74,-7.7578 12.3,-12.6484 2.55,-4.9102 3.83,-10.5899 3.83,-17.0586 0,-13.1016 -4.74,-23.6016 -14.22,-31.5 C 1541.16,3.94141 1528.58,0 1512.94,0" /><path
         id="path64"
         style="fill:#566c78;fill-opacity:1;fill-rule:nonzero;stroke:none"
         d="M 1690.18,160.52 V 149.23 H 1640.5 V 2.48047 h -12.19 V 149.23 h -49.67 v 11.29 h 111.54" /><path
         id="path66"
         style="fill:#566c78;fill-opacity:1;fill-rule:nonzero;stroke:none"
         d="m 1719.53,160.52 h 11.96 V 2.48047 h -11.96 V 160.52" /><path
         id="path68"
         style="fill:#566c78;fill-opacity:1;fill-rule:nonzero;stroke:none"
         d="m 1848.45,0 c -23.79,0 -43.43,7.85938 -58.93,23.5898 -15.51,15.7188 -23.26,35.0313 -23.26,57.9102 0,22.879 7.75,42.191 23.26,57.922 15.5,15.719 35.14,23.59 58.93,23.59 14.45,0 27.69,-3.422 39.74,-10.274 12.04,-6.859 21.37,-16.066 27.99,-27.668 l -10.61,-6.09 c -5.27,9.79 -13.02,17.649 -23.25,23.59 -10.24,5.95 -21.53,8.93 -33.87,8.93 -20.48,0 -37.3,-6.738 -50.47,-20.219 -13.17,-13.461 -19.75,-30.062 -19.75,-49.781 0,-19.7187 6.58,-36.3203 19.75,-49.7891 13.17,-13.4687 29.99,-20.1992 50.47,-20.1992 12.34,0 23.7,3.0078 34.09,9.0274 10.39,6.0195 18.21,14.082 23.49,24.1601 l 10.61,-6.0976 C 1910.16,26.8594 1900.83,17.5 1888.64,10.4922 1876.45,3.48828 1863.05,0 1848.45,0" /><path
         id="path70"
         style="fill:#566c78;fill-opacity:1;fill-rule:nonzero;stroke:none"
         d="m 1972.52,31.9414 c 13.46,-13.6211 29.91,-20.4297 49.33,-20.4297 19.42,0 35.86,6.8086 49.33,20.4297 13.47,13.6172 20.21,30.1484 20.21,49.5586 0,19.422 -6.74,35.941 -20.21,49.559 -13.47,13.621 -29.91,20.441 -49.33,20.441 -19.42,0 -35.87,-6.82 -49.33,-20.441 -13.48,-13.618 -20.21,-30.137 -20.21,-49.559 0,-19.4102 6.73,-35.9414 20.21,-49.5586 z m 107.13,-8.1328 C 2063.84,7.94141 2044.58,0 2021.85,0 c -22.73,0 -42,7.94141 -57.8,23.8086 -15.81,15.8828 -23.71,35.1133 -23.71,57.6914 0,22.582 7.9,41.809 23.71,57.699 15.8,15.871 35.07,23.813 57.8,23.813 22.73,0 41.99,-7.942 57.8,-23.813 15.8,-15.89 23.72,-35.117 23.72,-57.699 0,-22.5781 -7.92,-41.8086 -23.72,-57.6914" /><path
         id="path72"
         style="fill:#566c78;fill-opacity:1;fill-rule:nonzero;stroke:none"
         d="m 2256.67,74.0508 c 10.84,0 19.75,3.5312 26.75,10.6094 7.01,7.0703 10.5,16.0308 10.5,26.8708 0,10.989 -3.49,20.02 -10.5,27.098 -7,7.07 -15.91,10.601 -26.75,10.601 H 2214.9 V 74.0508 Z m 0,86.4692 c 14.15,0 25.88,-4.661 35.22,-13.989 9.34,-9.34 13.99,-21 13.99,-35 0,-13.9997 -4.65,-25.6326 -13.99,-34.8826 -9.34,-9.2578 -21.07,-13.8867 -35.22,-13.8867 H 2214.9 V 2.48047 h -11.97 V 160.52 h 53.74" /><path
         id="path74"
         style="fill:#566c78;fill-opacity:1;fill-rule:nonzero;stroke:none"
         d="m 2362,31.9414 c 13.47,-13.6211 29.92,-20.4297 49.33,-20.4297 19.43,0 35.86,6.8086 49.34,20.4297 13.47,13.6172 20.2,30.1484 20.2,49.5586 0,19.422 -6.73,35.941 -20.2,49.559 -13.48,13.621 -29.91,20.441 -49.34,20.441 -19.41,0 -35.86,-6.82 -49.33,-20.441 -13.47,-13.618 -20.21,-30.137 -20.21,-49.559 0,-19.4102 6.74,-35.9414 20.21,-49.5586 z m 107.14,-8.1328 C 2453.34,7.94141 2434.06,0 2411.33,0 c -22.72,0 -41.99,7.94141 -57.8,23.8086 -15.8,15.8828 -23.7,35.1133 -23.7,57.6914 0,22.582 7.9,41.809 23.7,57.699 15.81,15.871 35.08,23.813 57.8,23.813 22.73,0 42.01,-7.942 57.81,-23.813 15.81,-15.89 23.71,-35.117 23.71,-57.699 0,-22.5781 -7.9,-41.8086 -23.71,-57.6914" /><path
         id="path76"
         style="fill:#566c78;fill-opacity:1;fill-rule:nonzero;stroke:none"
         d="M 2539.58,149.23 V 78.5703 h 50.35 c 9.63,0 17.83,3.4219 24.61,10.2695 6.77,6.8516 10.15,15.1602 10.15,24.9412 0,9.789 -3.38,18.149 -10.15,25.071 -6.78,6.929 -14.98,10.378 -24.61,10.378 z m 87.83,-146.74953 -38.1,64.80083 h -49.73 V 2.48047 H 2527.6 V 160.52 h 62.33 c 12.79,0 23.78,-4.59 32.96,-13.77 9.18,-9.18 13.78,-20.168 13.78,-32.969 0,-10.679 -3.29,-20.1599 -9.83,-28.4412 -6.55,-8.2812 -14.86,-13.7695 -24.95,-16.4882 l 39.29,-66.37113 h -13.77" /><path
         id="path78"
         style="fill:#566c78;fill-opacity:1;fill-rule:nonzero;stroke:none"
         d="m 2735.33,160.52 h 11.97 V 2.48047 h -11.97 V 160.52" /><path
         id="path80"
         style="fill:#566c78;fill-opacity:1;fill-rule:nonzero;stroke:none"
         d="M 2934.03,160.52 V 2.48047 h -11.97 V 142.922 l -58.47,-97.09 h -2.04 l -58.48,97.098 V 2.48047 H 2791.1 V 160.52 h 15.07 l 56.4,-93.6294 56.4,93.6294 h 15.06" /><path
         id="path82"
         style="fill:#566c78;fill-opacity:1;fill-rule:nonzero;stroke:none"
         d="m 2993.95,53.9492 h 70.46 l -35.24,91.8398 z m 90.22,-51.46873 -15.42,40.17973 h -79.13 L 2974.21,2.48047 h -12.64 l 61.4,158.03953 h 12.65 L 3096.81,2.48047 h -12.64" /><path
         id="path84"
         style="fill:#566c78;fill-opacity:1;fill-rule:nonzero;stroke:none"
         d="m 3269.09,76.082 v -6.0898 c 0,-19.7227 -7,-36.3203 -21,-49.793 C 3234.09,6.71875 3215.65,0 3192.77,0 c -24.08,0 -43.96,7.85938 -59.61,23.5898 -15.65,15.7188 -23.48,35.0313 -23.48,57.9102 0,22.879 7.75,42.191 23.26,57.922 15.49,15.719 35.14,23.59 58.93,23.59 14.44,0 27.73,-3.461 39.84,-10.391 12.12,-6.922 21.49,-16.18 28.12,-27.769 l -10.62,-6.321 c -5.27,9.93 -13.05,17.91 -23.36,23.938 -10.32,6.011 -21.65,9.031 -33.98,9.031 -20.48,0 -37.29,-6.738 -50.47,-20.219 -13.17,-13.461 -19.75,-30.062 -19.75,-49.781 0,-19.7187 6.62,-36.3203 19.87,-49.7891 13.24,-13.4687 30.32,-20.1992 51.25,-20.1992 18.51,0 33.49,5.0391 44.93,15.1289 11.44,10.0703 17.84,22.8008 19.19,38.1485 h -67.06 V 76.082 h 79.26" /><path
         id="path86"
         style="fill:#566c78;fill-opacity:1;fill-rule:nonzero;stroke:none"
         d="m 3315.6,13.7695 h 79.02 V 2.48047 h -90.99 V 160.52 h 89.86 V 149.23 H 3315.6 V 87.832 h 72.25 V 76.5391 H 3315.6 V 13.7695" /><path
         id="path88"
         style="fill:#566c78;fill-opacity:1;fill-rule:nonzero;stroke:none"
         d="M 3571.42,160.52 V 2.48047 h -11.97 V 142.922 l -58.47,-97.09 h -2.04 l -58.48,97.098 V 2.48047 h -11.97 V 160.52 h 15.07 l 56.41,-93.6294 56.39,93.6294 h 15.06" /><path
         id="path90"
         style="fill:#b01419;fill-opacity:1;fill-rule:nonzero;stroke:none"
         d="M 2054.59,1946.78 1197.66,1054.2 h 138.71 l 718.22,748.1 718.22,-748.1 h 138.71 l -856.93,892.58" /><path
         id="path92"
         style="fill:#e07b10;fill-opacity:1;fill-rule:nonzero;stroke:none"
         d="m 2054.59,1513.33 440.79,-459.13 h 138.71 l -579.5,603.61 -579.51,-603.61 h 138.72 l 440.79,459.13" /><path
         id="path94"
         style="fill:#dc401a;fill-opacity:1;fill-rule:nonzero;stroke:none"
         d="m 2054.59,1802.3 -718.22,-748.1 h 138.71 l 579.51,603.61 579.5,-603.61 h 138.72 l -718.22,748.1" /><g
         id="g96"><g
           clip-path="url(#clipPath102)"
           id="g98"><path
             id="path110"
             style="fill:url(#linearGradient108);fill-opacity:1;fill-rule:nonzero;stroke:none"
             d="m 2480.52,1499.92 431,-445.54 -1.15,891.99 0.88,0.91 h -0.88 l -1.56,598.83 -282.46,61.66 -572.24,-663.73 -570.81,663.73 -283.89,-61.66 v -597.62 l -3.65,0.01 3.65,-3.81 -1.28,-889.83 428.49,443.3 424.75,-443.96 429.15,445.72" /></g></g><path
         id="path112"
         style="fill:#b01419;fill-opacity:1;fill-rule:nonzero;stroke:none"
         d="m 1483.8,2607.77 -283.92,-61.66 v -597.62 l -3.65,0.01 3.65,-3.81 -0.32,-889.36 284.24,1552.44" /><path
         id="path114"
         style="fill:#b01419;fill-opacity:1;fill-rule:nonzero;stroke:none"
         d="m 2628.46,2607.77 283.93,-61.66 v -597.62 l 3.65,0.01 -3.65,-3.81 0.32,-889.36 -284.25,1552.44" /><g
         id="g116"><g
           clip-path="url(#clipPath122)"
           id="g118"><g
             clip-path="url(#clipPath128)"
             id="g124"><path
               id="path136"
               style="fill:url(#linearGradient134);fill-opacity:1;fill-rule:nonzero;stroke:none"
               d="m 2037,2215 v 1 h -8 v 1 h -6 v 1 h -7 v 1 h -4 v 1 h -4 v 1 h -4 v 1 h -4 v 1 h -4 v 1 h -3 v 1 h -2 v 1 h -3 v 1 h -3 v 1 h -3 v 1 h -2 v 1 h -3 v 1 h -2 v 1 h -2 v 1 h -2 v 1 h -2 v 1 h -2 v 1 h -2 v 1 h -2 v 1 h -3 v 1 h -1 v 1 h -2 v 1 h -2 v 1 h -1 v 1 h -2 v 1 h -2 v 1 h -1 v 1 h -2 v 1 h -2 v 1 h -1 v 1 h -2 v 1 h -1 v 1 h -1 v 1 h -2 v 1 h -1 v 1 h -1 v 1 h -2 v 1 h -1 v 1 h -1 v 1 h -2 v 1 h -1 v 1 h -1 v 1 h -2 v 1 h -1 v 1 h -1 v 1 h -1 v 1 h -1 v 1 h -1 v 1 h -1 v 1 h -1 v 1 h -1 v 1 h -1 v 1 h -2 v 1 h -1 v 1 h -1 v 1 h -1 v 1 h -1 v 2 h -1 v 1 h -1 v 1 h -1 v 1 h -1 v 1 h -1 v 1 h -1 v 1 h -1 v 1 h -1 v 1 h -1 v 1 h -1 v 2 h -1 v 1 h -1 v 1 h -1 v 2 h -1 v 1 h -1 v 1 h -1 v 2 h -1 v 1 h -1 v 1 h -1 v 2 h -1 v 1 h -1 v 1 h -1 v 2 h -1 v 1 h -1 v 2 h -1 v 2 h -1 v 1 h -1 v 2 h -1 v 1 h -1 v 2 h -1 v 2 h -1 v 1 h -1 v 2 h -1 v 2 h -1 v 2 h -1 v 2 h -1 v 2 h -1 v 2 h -1 v 3 h -1 v 2 h -1 v 2 h -1 v 2 h -1 v 3 h -1 v 3 h -1 v 2 h -1 v 3 h -1 v 3 h -1 v 3 h -1 v 3 h -1 v 4 h -1 v 4 h -1 v 4 h -1 v 4 h -1 v 6 h -1 v 7 h -1 v 6 h -1 v 14 h -1 v 16 h 1 v 14 h 1 v 7 h 1 v 6 h 1 v 7 h 1 v 3 h 1 v 4 h 1 v 4 h 1 v 4 h 1 v 4 h 1 v 3 h 1 v 2 h 1 v 3 h 1 v 3 h 1 v 3 h 1 v 2 h 1 v 3 h 1 v 2 h 1 v 2 h 1 v 2 h 1 v 2 h 1 v 2 h 1 v 2 h 1 v 2 h 1 v 2 h 1 v 2 h 1 v 2 h 1 v 1 h 1 v 2 h 1 v 2 h 1 v 1 h 1 v 2 h 1 v 2 h 1 v 1 h 1 v 2 h 1 v 1 h 1 v 2 h 1 v 1 h 1 v 1 h 1 v 2 h 1 v 1 h 1 v 1 h 1 v 2 h 1 v 1 h 1 v 1 h 1 v 2 h 1 v 1 h 1 v 1 h 1 v 1 h 1 v 1 h 1 v 1 h 1 v 1 h 1 v 2 h 1 v 1 h 1 v 1 h 1 v 1 h 1 v 1 h 1 v 1 h 1 v 1 h 1 v 1 h 1 v 1 h 1 v 1 h 1 v 1 h 1 v 1 h 1 v 1 h 1 v 1 h 1 v 1 h 2 v 1 h 1 v 1 h 1 v 1 h 1 v 1 h 1 v 1 h 1 v 1 h 1 v 1 h 2 v 1 h 1 v 1 h 1 v 1 h 2 v 1 h 1 v 1 h 1 v 1 h 2 v 1 h 1 v 1 h 1 v 1 h 2 v 1 h 1 v 1 h 2 v 1 h 1 v 1 h 2 v 1 h 2 v 1 h 1 v 1 h 2 v 1 h 2 v 1 h 1 v 1 h 2 v 1 h 1 v 1 h 3 v 1 h 2 v 1 h 2 v 1 h 2 v 1 h 2 v 1 h 2 v 1 h 2 v 1 h 2 v 1 h 2 v 1 h 3 v 1 h 3 v 1 h 3 v 1 h 2 v 1 h 3 v 1 h 3 v 1 h 3 v 1 h 4 v 1 h 4 v 1 h 4 v 1 h 4 v 1 h 6 v 1 h 6 v 1 h 7 v 1 h 46 v -1 h 6 v -1 h 7 v -1 h 6 v -1 h 4 v -1 h 4 v -1 h 4 v -1 h 3 v -1 h 4 v -1 h 3 v -1 h 2 v -1 h 3 v -1 h 3 v -1 h 3 v -1 h 2 v -1 h 3 v -1 h 2 v -1 h 2 v -1 h 2 v -1 h 2 v -1 h 2 v -1 h 2 v -1 h 2 v -1 h 2 v -1 h 2 v -1 h 2 v -1 h 1 v -1 h 2 v -1 h 2 v -1 h 1 v -1 h 2 v -1 h 2 v -1 h 1 v -1 h 2 v -1 h 1 v -1 h 2 v -1 h 1 v -1 h 1 v -1 h 2 v -1 h 1 v -1 h 1 v -1 h 2 v -1 h 1 v -1 h 1 v -1 h 2 v -1 h 1 v -1 h 1 v -1 h 1 v -1 h 1 v -1 h 1 v -1 h 1 v -1 h 1 v -1 h 2 v -1 h 1 v -1 h 1 v -1 h 1 v -1 h 1 v -1 h 1 v -1 h 1 v -1 h 1 v -1 h 1 v -1 h 1 v -1 h 1 v -1 h 1 v -2 h 1 v -1 h 1 v -1 h 1 v -1 h 1 v -1 h 1 v -1 h 1 v -1 h 1 v -1 h 1 v -2 h 1 v -1 h 1 v -1 h 1 v -2 h 1 v -1 h 1 v -1 h 1 v -2 h 1 v -1 h 1 v -1 h 1 v -2 h 1 v -1 h 1 v -1 h 1 v -2 h 1 v -2 h 1 v -1 h 1 v -2 h 1 v -2 h 1 v -1 h 1 v -2 h 1 v -1 h 1 v -2 h 1 v -2 h 1 v -2 h 1 v -2 h 1 v -2 h 1 v -2 h 1 v -2 h 1 v -2 h 1 v -2 h 1 v -2 h 1 v -3 h 1 v -3 h 1 v -3 h 1 v -2 h 1 v -3 h 1 v -3 h 1 v -2 h 1 v -4 h 1 v -4 h 1 v -4 h 1 v -4 h 1 v -4 h 1 v -7 h 1 v -6 h 1 v -7 h 1 v -14 h 1 v -13 h -1 v -15 h -1 v -6 h -1 v -7 h -1 v -7 h -1 v -4 h -1 v -3 h -1 v -4 h -1 v -4 h -1 v -4 h -1 v -3 h -1 v -3 h -1 v -2 h -1 v -3 h -1 v -3 h -1 v -2 h -1 v -3 h -1 v -2 h -1 v -2 h -1 v -2 h -1 v -2 h -1 v -2 h -1 v -3 h -1 v -2 h -1 v -2 h -1 v -1 h -1 v -2 h -1 v -2 h -1 v -1 h -1 v -2 h -1 v -2 h -1 v -1 h -1 v -2 h -1 v -2 h -1 v -1 h -1 v -2 h -1 v -1 h -1 v -1 h -1 v -2 h -1 v -1 h -1 v -1 h -1 v -2 h -1 v -1 h -1 v -1 h -1 v -2 h -1 v -1 h -1 v -1 h -1 v -1 h -1 v -2 h -1 v -1 h -1 v -1 h -1 v -1 h -1 v -1 h -1 v -1 h -1 v -1 h -1 v -1 h -1 v -1 h -1 v -1 h -1 v -2 h -1 v -1 h -1 v -1 h -2 v -1 h -1 v -1 h -1 v -1 h -1 v -1 h -1 v -1 h -1 v -1 h -1 v -1 h -1 v -1 h -1 v -1 h -1 v -1 h -2 v -1 h -1 v -1 h -1 v -1 h -1 v -1 h -2 v -1 h -1 v -1 h -1 v -1 h -2 v -1 h -1 v -1 h -1 v -1 h -2 v -1 h -1 v -1 h -1 v -1 h -2 v -1 h -2 v -1 h -1 v -1 h -2 v -1 h -1 v -1 h -2 v -1 h -2 v -1 h -1 v -1 h -2 v -1 h -2 v -1 h -2 v -1 h -2 v -1 h -2 v -1 h -2 v -1 h -2 v -1 h -2 v -1 h -2 v -1 h -2 v -1 h -2 v -1 h -3 v -1 h -3 v -1 h -2 v -1 h -3 v -1 h -3 v -1 h -2 v -1 h -3 v -1 h -4 v -1 h -4 v -1 h -4 v -1 h -4 v -1 h -4 v -1 h -7 v -1 h -7 v -1 h -7 v -1" /></g></g></g></g></g></svg>